<svg width="102" height="102" viewBox="0 0 102 102" fill="none" xmlns="http://www.w3.org/2000/svg">
<rect opacity="0.2" width="102" height="102" rx="26" fill="#00BA4F"/>
<g filter="url(#filter0_d_301_41)">
<path opacity="0.35" d="M51 21C34.431 21 21 34.431 21 51C21 67.569 34.431 81 51 81C67.569 81 81 67.569 81 51C81 34.431 67.569 21 51 21V21ZM51 60C46.029 60 42 55.971 42 51C42 46.029 46.029 42 51 42C55.971 42 60 46.029 60 51C60 55.971 55.971 60 51 60Z" fill="#00BA4F"/>
<path d="M54.369 21.186C52.581 20.988 51 22.371 51 24.171C51 28.377 51 35.973 51 42.012C55.95 42.006 59.994 46.05 60 51H77.814C79.614 51 81.015 49.419 80.814 47.631C79.263 33.753 68.247 22.737 54.369 21.186V21.186Z" fill="#00BA4F"/>
</g>
<defs>
<filter id="filter0_d_301_41" x="7" y="11" width="88" height="88" filterUnits="userSpaceOnUse" color-interpolation-filters="sRGB">
<feFlood flood-opacity="0" result="BackgroundImageFix"/>
<feColorMatrix in="SourceAlpha" type="matrix" values="0 0 0 0 0 0 0 0 0 0 0 0 0 0 0 0 0 0 127 0" result="hardAlpha"/>
<feOffset dy="4"/>
<feGaussianBlur stdDeviation="7"/>
<feComposite in2="hardAlpha" operator="out"/>
<feColorMatrix type="matrix" values="0 0 0 0 0 0 0 0 0 0.729412 0 0 0 0 0.309804 0 0 0 0.3 0"/>
<feBlend mode="normal" in2="BackgroundImageFix" result="effect1_dropShadow_301_41"/>
<feBlend mode="normal" in="SourceGraphic" in2="effect1_dropShadow_301_41" result="shape"/>
</filter>
</defs>
</svg>
